# xmcd
#
# Track frame offsets:
#	150
#	12853
#	26845
#	41357
#	56419
#	69529
#	90215
#	102719
#	119944
#	137306
#	149178
#
# Disc length: 2319 seconds
#
# Revision: 0
# Processed by: cddbd v1.5.1PL2 Copyright (c) Steve Scherf et al.
# Submitted via: dBpowerAMP V4.0
#
DISCID=9c090d0b
DTITLE=asterix - live music
DYEAR=2001
DGENRE=Folk
TTITLE0=country roads
TTITLE1=save all your kisses for me
TTITLE2=show mer the way to amarillo
TTITLE3=lemon tree
TTITLE4=baby, love really hurts
TTITLE5=what's up
TTITLE6=i should have known better
TTITLE7=every breath
TTITLE8=walk of life
TTITLE9=looking out back
TTITLE10=still loving you
EXTD=asterix live CD bought in F1 Camp, Budapaest, 2001
EXTT0=
EXTT1=
EXTT2=
EXTT3=
EXTT4=
EXTT5=
EXTT6=
EXTT7=
EXTT8=
EXTT9=
EXTT10=
PLAYORDER=
